<svg width="955" height="736" viewBox="0 0 955 736" fill="none" xmlns="http://www.w3.org/2000/svg">
<g opacity="0.04">
<path fill-rule="evenodd" clip-rule="evenodd" d="M519.212 290.656H435.443L409.534 355.294L409.653 355.36L435.443 290.988H519.202L545.002 355.36L545.112 355.294L519.212 290.656ZM510.196 301.085L510.187 301.07H444.459L444.45 301.085H510.196ZM477.328 346.733L486.67 341.234L483.095 332.326H471.56L467.975 341.234L477.328 346.733ZM395.406 359.028L426.692 280.899H527.954L559.24 359.028L477.328 407.304L395.406 359.028Z" fill="white"/>
<path fill-rule="evenodd" clip-rule="evenodd" d="M528.255 281.386H426.382L394.905 359.896L477.314 408.413L559.74 359.896L528.255 281.386ZM381.228 363.495L417.937 271.962H536.699L573.417 363.495L477.314 420.072L381.228 363.495Z" fill="white"/>
<path fill-rule="evenodd" clip-rule="evenodd" d="M537.306 270.842H417.349L380.276 363.217L477.323 420.316L574.37 363.217L537.306 270.842ZM367.05 366.696L409.193 261.747H545.462L587.596 366.696L477.323 431.563L367.05 366.696Z" fill="white"/>
<path fill-rule="evenodd" clip-rule="evenodd" d="M546.347 260.306H408.299L365.618 366.546L477.318 432.197L589.019 366.546L546.347 260.306ZM352.873 369.898L400.415 251.533H554.222L601.774 369.898L477.319 443.055L352.873 369.898Z" fill="white"/>
<path fill-rule="evenodd" clip-rule="evenodd" d="M554.182 249.765H398.907L350.909 369.874L476.54 444.097L602.171 369.874L554.182 249.765ZM338.694 373.099L391.355 241.318H561.724L614.376 373.099L476.54 454.546L338.694 373.099Z" fill="white"/>
<path fill-rule="evenodd" clip-rule="evenodd" d="M563.213 239.231H389.849L336.286 373.196L476.535 455.981L616.785 373.196L563.213 239.231ZM324.517 376.296L382.592 231.104H570.47L628.554 376.296L476.535 466.038L324.517 376.296Z" fill="white"/>
<path fill-rule="evenodd" clip-rule="evenodd" d="M572.259 228.697H380.812L321.643 376.513L476.531 467.866L631.428 376.513L572.259 228.697ZM310.339 379.493L373.831 220.889H579.249L642.732 379.493L476.531 477.529L310.339 379.493Z" fill="white"/>
<path fill-rule="evenodd" clip-rule="evenodd" d="M581.313 218.158H371.766L306.999 379.844L476.531 479.771L646.071 379.844L581.313 218.158ZM296.161 382.692L365.063 210.675H588.007L656.91 382.692L476.531 489.02L296.161 382.692Z" fill="white"/>
<path fill-rule="evenodd" clip-rule="evenodd" d="M590.35 208.903H362.72L292.354 384.435L476.531 492.93L660.717 384.435L590.35 208.903ZM281.983 387.172L356.296 201.737H596.766L671.088 387.172L476.531 501.788L281.983 387.172Z" fill="white"/>
<path fill-rule="evenodd" clip-rule="evenodd" d="M599.403 198.356H353.677L277.726 387.769L476.535 504.82L675.354 387.769L599.403 198.356ZM267.805 390.381L347.541 191.522H605.53L685.266 390.381L476.536 513.28L267.805 390.381Z" fill="white"/>
<path fill-rule="evenodd" clip-rule="evenodd" d="M608.444 187.831H344.626L263.078 391.094L476.535 516.71L689.992 391.094L608.444 187.831ZM253.627 393.58L338.779 181.308H614.291L699.443 393.58L476.535 524.771L253.627 393.58Z" fill="white"/>
<path fill-rule="evenodd" clip-rule="evenodd" d="M617.492 177.293H335.57L248.431 394.409L476.535 528.599L704.64 394.409L617.492 177.293ZM239.449 396.777L330.021 171.093H623.041L713.622 396.777L476.535 536.262L239.449 396.777Z" fill="white"/>
<path fill-rule="evenodd" clip-rule="evenodd" d="M626.552 166.74H326.536L233.801 397.732L476.535 540.496L719.288 397.732L626.552 166.74ZM225.271 399.982L321.267 160.879H631.812L727.799 399.982L476.535 547.754L225.271 399.982Z" fill="white"/>
<path fill-rule="evenodd" clip-rule="evenodd" d="M635.588 156.216H317.483L219.161 401.057L476.531 552.385L733.909 401.057L635.588 156.216ZM211.093 403.174L312.495 150.664H640.576L741.977 403.174L476.531 559.245L211.093 403.174Z" fill="white"/>
<path fill-rule="evenodd" clip-rule="evenodd" d="M644.645 145.677H308.435L204.513 404.39L476.54 564.281L748.567 404.39L644.645 145.677ZM198.815 407.493L196.916 406.375L303.736 140.45H649.353L756.155 406.375L476.54 570.736L198.815 407.493Z" fill="white"/>
<path fill-rule="evenodd" clip-rule="evenodd" d="M653.679 135.146H299.382L189.863 407.7L476.531 576.163L763.198 407.7L653.679 135.146ZM182.737 409.582L294.965 130.235H658.087L770.333 409.582L476.531 582.228L182.737 409.582Z" fill="white"/>
<path fill-rule="evenodd" clip-rule="evenodd" d="M662.739 125.877H290.332L175.223 412.311L476.535 589.328L777.848 412.311L662.739 125.877ZM168.56 414.053L286.205 121.298H666.866L784.511 414.053L476.535 594.996L168.56 414.053Z" fill="white"/>
<path fill-rule="evenodd" clip-rule="evenodd" d="M672.094 115.339H282.552L162.151 415.632L477.318 601.217L792.495 415.632L672.094 115.339ZM155.957 417.257L278.734 111.083H675.912L798.689 417.257L477.318 606.487L155.957 417.257Z" fill="white"/>
<path fill-rule="evenodd" clip-rule="evenodd" d="M681.142 104.816H273.495L147.494 418.949L477.319 613.105L807.152 418.949L681.142 104.816ZM143.203 421.301L141.779 420.456L269.975 100.868H684.68L812.867 420.456L477.319 617.979L143.203 421.301Z" fill="white"/>
<path fill-rule="evenodd" clip-rule="evenodd" d="M690.186 94.2703H264.459L132.873 422.273L477.323 624.994L821.782 422.273L690.186 94.2703ZM127.601 423.654L261.211 90.6538H693.443L827.045 423.654L477.323 629.47L127.601 423.654Z" fill="white"/>
<path fill-rule="evenodd" clip-rule="evenodd" d="M836.431 425.602L699.244 83.7394H255.411L118.215 425.602L477.323 636.89L836.431 425.602ZM114.621 427.571L113.423 426.866L251.981 81.5787L252.444 80.4395H702.202L841.223 426.866L478.521 640.263L477.323 640.961L114.621 427.571Z" fill="white"/>
<path fill-rule="evenodd" clip-rule="evenodd" d="M708.294 73.2013H246.352L103.575 428.916L477.328 648.77L851.071 428.916L708.294 73.2013ZM99.2456 430.062L243.684 70.2249H710.963L855.401 430.062L477.328 652.453L99.2456 430.062Z" fill="white"/>
<path fill-rule="evenodd" clip-rule="evenodd" d="M717.335 62.6635H237.302L88.9166 432.252L477.323 660.666L865.72 432.252L717.335 62.6635ZM86.0297 433.832L85.0674 433.273L234.542 60.9289L234.914 60.0103H719.732L869.206 432.355L869.578 433.273L477.323 663.944L86.0297 433.832Z" fill="white"/>
<path fill-rule="evenodd" clip-rule="evenodd" d="M726.395 53.4022H228.251L74.2764 436.843L477.318 673.824L880.37 436.843L726.395 53.4022ZM71.7341 438.232L70.8896 437.732L225.827 51.8809L226.163 51.0725H728.483L883.439 436.924L883.756 437.732L477.319 676.712L71.7341 438.232Z" fill="white"/>
<path fill-rule="evenodd" clip-rule="evenodd" d="M894.992 440.17L735.44 42.8862H219.215L59.6537 440.17L477.323 685.712L894.992 440.17ZM57.4561 441.368L56.7114 440.934L217.126 41.5636L217.408 40.8582H737.247L897.653 440.236L897.934 440.934L478.058 687.763L477.323 688.203L57.4561 441.368Z" fill="white"/>
<path fill-rule="evenodd" clip-rule="evenodd" d="M744.49 32.341H210.155L44.995 443.493L477.318 697.608L909.642 443.493L744.49 32.341ZM43.1422 444.507L42.5337 444.14L208.402 31.2388L208.63 30.6436H746.007L911.885 443.559L912.112 444.14L477.318 699.695L43.1422 444.507Z" fill="white"/>
<path fill-rule="evenodd" clip-rule="evenodd" d="M924.292 446.818L753.541 21.8032H201.114L30.3543 446.818L477.323 709.482L924.292 446.818ZM28.8646 447.633L28.356 447.332L199.688 20.8992L199.879 20.429H754.777L926.099 446.862L926.29 447.332L477.832 710.885L477.323 711.186L28.8646 447.633Z" fill="white"/>
<path fill-rule="evenodd" clip-rule="evenodd" d="M938.924 450.922L762.585 11.2597H192.061L15.713 450.922L477.314 722.644L938.924 450.922ZM14.5684 451.547L14.1777 451.327L191.116 10.2144H763.529L940.468 451.327L477.695 723.726L477.314 723.954L14.5684 451.547Z" fill="white"/>
<path fill-rule="evenodd" clip-rule="evenodd" d="M182.349 0L182.249 0.257607L0 454.522L0.272569 454.683L477.323 735.446L477.586 735.284L954.646 454.522L954.555 454.271L772.306 0H182.349ZM1.06305 454.242L183.021 0.728836H771.634L953.583 454.242L477.323 734.526L1.06305 454.242Z" fill="white"/>
</g>
</svg>
